# xmcd
#
# Track frame offsets:
#	182
#	15277
#	27150
#	39792
#	62635
#	73700
#	110000
#	123417
#	134882
#	150907
#	170985
#	181235
#	195497
#
# Disc length: 2759 seconds
#
# Revision: 1
# Processed by: cddbd v1.5.1PL2 Copyright (c) Steve Scherf et al.
# Submitted via: audiograbber 1.80
#
DISCID=ab0ac50d
DTITLE=Sid Selvidge - Twice Told Tales
DYEAR=1900
DGENRE=Blues
TTITLE0=Pearlee
TTITLE1=Keep It Clean
TTITLE2=East St. Louis Blues
TTITLE3=Buffalo Skinners
TTITLE4=Lovesick Blues
TTITLE5=Watch and Chain
TTITLE6=Tell Me Why You Like Roosevelt
TTITLE7=Atomic Power
TTITLE8=Since I Met You Baby
TTITLE9=Here Today
TTITLE10=Hey Baby
TTITLE11=Stay In My Car
TTITLE12=Mule Man
EXTD=
EXTT0=
EXTT1=
EXTT2=
EXTT3=
EXTT4=
EXTT5=
EXTT6=
EXTT7=
EXTT8=
EXTT9=
EXTT10=
EXTT11=
EXTT12=
PLAYORDER=
